<svg width="474" height="68" viewBox="0 0 474 68" fill="none" xmlns="http://www.w3.org/2000/svg">
<path d="M79 27.0043C79 26.8455 79 26.6792 78.9925 26.5129C78.9925 26.5129 78.9925 26.4978 78.9925 26.4902C78.4281 11.7936 60.9637 0 39.5038 0C17.6902 0 0 12.1867 0 27.216H0.0677409C0.120413 29.8242 1.76829 31.1623 4.07079 31.8805C7.17842 32.8406 22.3554 31.0413 28.9017 31.3135C30.1809 31.3513 30.6775 31.9561 30.6022 32.6365C30.6022 32.6667 30.5947 32.6894 30.5872 32.7197C30.5722 32.8028 30.5571 32.886 30.527 32.9691C30.3539 33.5361 29.8648 34.0653 27.931 34.466C24.7707 35.1086 20.0604 36.2199 15.8692 39.3044C12.9798 41.4363 10.8955 44.3469 11.3094 47.4314C11.5201 48.9812 12.4305 50.7125 13.6946 51.6348C15.5908 53.0258 19.1274 52.988 21.3621 50.1984C23.326 47.7414 25.6737 42.3057 27.5323 39.9848C28.6007 38.6543 29.895 37.0742 31.1516 36.7189C31.4676 36.5828 31.8438 36.5753 32.1824 36.734C32.6866 36.9684 32.9725 37.4825 32.9273 38.0117C32.8069 39.2137 32.2501 40.6728 31.1365 42.0714C25.8091 48.7771 22.1296 52.4286 20.6849 57.8113C19.4659 62.3473 20.6172 65.3789 23.0627 66.4977C23.0928 66.5129 23.1304 66.528 23.1605 66.5431C23.1906 66.5582 23.2282 66.5733 23.2583 66.5884C25.7038 67.7073 28.7362 66.5885 31.3472 62.6951C34.4398 58.0759 34.7708 52.8822 36.3058 44.4452C36.6068 42.782 37.2765 41.4741 38.0365 40.5896C38.059 40.5518 38.0892 40.5216 38.1193 40.4913C38.1193 40.4913 38.1268 40.4762 38.1343 40.4687C38.503 40.0604 39.0975 39.9168 39.6242 40.1511C39.9176 40.2872 40.1283 40.514 40.2562 40.7862C40.2562 40.7862 40.2562 40.8013 40.2637 40.8089C40.2788 40.8315 40.2863 40.8618 40.3014 40.8845C40.8732 42.0789 41.114 43.6136 40.813 45.3146C40.2863 48.2403 37.743 53.5928 37.1862 56.7C36.5541 60.2229 38.8491 62.9294 41.1366 63.4586C42.6641 63.8064 44.5527 63.3603 45.862 62.5061C48.4504 60.7975 49.2706 57.3048 48.9696 53.7213C48.473 47.7565 45.5685 42.9635 44.0335 40.2494C43.7175 39.6975 43.6724 39.1608 43.7928 38.6921C43.8153 38.5938 43.8379 38.4955 43.883 38.4048C43.883 38.3897 43.8981 38.3821 43.9056 38.367C43.9056 38.367 43.9056 38.367 43.9056 38.3594C44.0862 37.9965 44.4173 37.7622 44.786 37.6866C44.8161 37.679 44.8537 37.679 44.8914 37.6715C44.9741 37.6639 45.0644 37.6563 45.1472 37.6639C45.2375 37.6715 45.3277 37.679 45.4256 37.7168H45.4331C47.0509 38.7223 48.7815 40.9752 49.85 43.2129C51.7687 47.2349 53.4844 55.9742 55.516 60.2305C57.826 65.0689 62.732 66.3239 65.7644 64.9404C67.781 64.0181 69.5417 61.803 70.2791 59.6106C71.7313 55.256 69.6696 50.2891 66.261 46.1916C60.9938 39.879 53.8455 37.2405 49.5038 34.5643C49.1728 34.3602 48.9019 34.1107 48.6686 33.8385C47.8786 32.886 48.2247 31.5932 49.5565 31.3589C49.5791 31.3589 49.6017 31.3589 49.6318 31.3589C49.7672 31.3362 49.9102 31.3362 50.0682 31.3362C56.607 31.0716 71.8065 32.8633 74.9067 31.9032C77.2242 31.185 78.842 29.8695 78.9699 27.2387H78.9774C78.9774 27.1631 78.9774 27.095 78.9774 27.0194L79 27.0043ZM45.8921 20.412C44.643 20.412 43.6347 19.399 43.6347 18.144C43.6347 16.889 44.643 15.876 45.8921 15.876C47.1412 15.876 48.1494 16.889 48.1494 18.144C48.1494 19.399 47.1412 20.412 45.8921 20.412ZM57.1789 20.412C55.9298 20.412 54.9215 19.399 54.9215 18.144C54.9215 16.889 55.9298 15.876 57.1789 15.876C58.4279 15.876 59.4362 16.889 59.4362 18.144C59.4362 19.399 58.4279 20.412 57.1789 20.412Z" fill="#8539FF"/>
<path d="M121.755 55.7476C114.653 55.7476 108.548 52.5704 105.931 47.7735L111.663 43.2258C113.968 46.7767 117.643 48.8949 121.942 48.8949C126.178 48.8949 129.106 46.7144 129.106 43.4127C129.106 40.2355 127.05 38.242 122.814 36.6846L117.955 34.9402C110.915 32.386 107.551 28.5236 107.551 22.4808C107.551 14.7559 113.656 10.0213 121.879 10.0213C127.362 10.0213 132.034 12.1394 135.273 16.0641L130.227 20.9856C128.047 18.3068 125.368 16.874 121.879 16.874C118.142 16.874 114.902 18.7429 114.902 21.9824C114.902 25.2218 116.958 26.6547 121.63 28.3367L126.116 30.0187C132.595 32.4483 136.519 36.3108 136.519 42.9766C136.519 50.7015 130.414 55.7476 121.755 55.7476ZM169.452 23.8513V55H162.599V51.7605C160.544 54.4393 157.18 55.623 154.002 55.623C146.651 55.623 141.917 50.4523 141.917 42.4782V23.8513H148.769V41.3569C148.769 46.3407 151.199 49.3932 155.498 49.3932C158.675 49.3932 161.291 47.3997 162.599 44.4717V23.8513H169.452ZM177.738 67.0857V23.8513H184.591V26.717C186.771 24.4743 189.949 23.2283 193.686 23.2283C202.969 23.2283 209.261 30.704 209.261 39.4257C209.261 48.1473 202.969 55.623 193.686 55.623C189.949 55.623 186.771 54.377 184.591 52.072V67.0857H177.738ZM192.939 49.3932C198.421 49.3932 202.221 44.9078 202.221 39.4257C202.221 33.9435 198.421 29.4581 192.939 29.4581C188.889 29.4581 186.273 31.327 184.591 33.7566V45.0324C186.273 47.5243 188.889 49.3932 192.939 49.3932ZM229.454 55.623C219.985 55.623 213.194 48.9572 213.194 39.4257C213.194 30.2679 219.985 23.2283 229.454 23.2283C237.677 23.2283 244.467 28.6482 244.467 38.6781C244.467 39.3634 244.467 39.924 244.405 40.9208H219.922C220.234 46.0915 224.283 49.3932 229.516 49.3932C233.939 49.3932 236.743 47.3997 238.425 44.6586L243.658 48.3965C240.854 52.8819 235.995 55.623 229.454 55.623ZM220.234 35.937H237.552C236.805 31.4516 233.192 29.022 229.205 29.022C225.155 29.022 221.231 31.327 220.234 35.937ZM250.578 55V23.8513H257.43V28.0252C258.614 25.5956 261.791 23.5398 265.28 23.5398C266.588 23.5398 267.709 23.7267 268.457 23.9136L267.46 30.5794C266.837 30.3302 265.965 30.2056 264.781 30.2056C262.04 30.2056 258.863 31.7631 257.43 35.0025V55H250.578ZM285.777 55V10.7688H293.066V48.0227H313.313V55H285.777ZM330.825 55.623C321.605 55.623 315.313 48.1473 315.313 39.4257C315.313 30.704 321.605 23.2283 330.825 23.2283C334.563 23.2283 337.74 24.4743 339.921 26.717V23.8513H346.773V55H339.921V52.072C337.74 54.377 334.563 55.623 330.825 55.623ZM331.635 49.3932C335.622 49.3932 338.239 47.5243 339.921 45.0324V33.7566C338.239 31.327 335.622 29.4581 331.635 29.4581C326.153 29.4581 322.353 33.9435 322.353 39.4257C322.353 44.9078 326.153 49.3932 331.635 49.3932ZM371.078 55.623C367.34 55.623 364.163 54.377 361.983 52.072V55H355.13V9.5229H361.983V26.717C364.163 24.4743 367.34 23.2283 371.078 23.2283C380.361 23.2283 386.653 30.704 386.653 39.4257C386.653 48.1473 380.361 55.623 371.078 55.623ZM370.331 49.3932C375.813 49.3932 379.613 44.9078 379.613 39.4257C379.613 33.9435 375.813 29.4581 370.331 29.4581C366.281 29.4581 363.665 31.327 361.983 33.7566V45.0324C363.665 47.5243 366.281 49.3932 370.331 49.3932ZM402.55 55.623C397.006 55.623 392.271 53.5049 390.028 49.0194L395.074 45.4062C396.32 48.1473 399.373 49.7047 402.55 49.7047C404.98 49.7047 407.035 48.5834 407.035 46.403C407.035 44.5963 405.976 43.5996 402.239 42.4159L399.497 41.6684C394.015 40.1732 391.274 36.8092 391.337 32.1369C391.337 26.6547 396.258 23.2283 402.488 23.2283C407.222 23.2283 410.836 25.0349 413.016 28.5236L408.281 32.1369C406.849 30.2056 404.917 28.9597 402.363 28.9597C400.307 28.9597 398.189 29.9564 398.189 31.8877C398.189 33.3828 398.875 34.6287 401.927 35.5632L405.104 36.4977C410.586 38.1797 413.826 40.7962 413.826 45.9669C413.826 51.9474 408.967 55.623 402.55 55.623Z" fill="black"/>
</svg>
