<svg width="79" height="68" viewBox="0 0 79 68" fill="none" xmlns="http://www.w3.org/2000/svg">
<path d="M79 27.0043C79 26.8455 79 26.6792 78.9925 26.5129C78.9925 26.5129 78.9925 26.4978 78.9925 26.4902C78.4281 11.7936 60.9637 0 39.5038 0C17.6902 0 0 12.1867 0 27.216H0.0677409C0.120413 29.8242 1.76829 31.1623 4.07079 31.8805C7.17842 32.8406 22.3554 31.0413 28.9017 31.3135C30.1809 31.3513 30.6775 31.9561 30.6022 32.6365C30.6022 32.6667 30.5947 32.6894 30.5872 32.7197C30.5722 32.8028 30.5571 32.886 30.527 32.9691C30.3539 33.5361 29.8648 34.0653 27.931 34.466C24.7707 35.1086 20.0604 36.2199 15.8692 39.3044C12.9798 41.4363 10.8955 44.3469 11.3094 47.4314C11.5201 48.9812 12.4305 50.7125 13.6946 51.6348C15.5908 53.0258 19.1274 52.988 21.3621 50.1984C23.326 47.7414 25.6737 42.3057 27.5323 39.9848C28.6007 38.6543 29.895 37.0742 31.1516 36.7189C31.4676 36.5828 31.8438 36.5753 32.1824 36.734C32.6866 36.9684 32.9725 37.4825 32.9273 38.0117C32.8069 39.2137 32.2501 40.6728 31.1365 42.0714C25.8091 48.7771 22.1296 52.4286 20.6849 57.8113C19.4659 62.3473 20.6172 65.3789 23.0627 66.4977C23.0928 66.5129 23.1304 66.528 23.1605 66.5431C23.1906 66.5582 23.2282 66.5733 23.2583 66.5884C25.7038 67.7073 28.7362 66.5885 31.3472 62.6951C34.4398 58.0759 34.7708 52.8822 36.3058 44.4452C36.6068 42.782 37.2765 41.4741 38.0365 40.5896C38.059 40.5518 38.0892 40.5216 38.1193 40.4913C38.1193 40.4913 38.1268 40.4762 38.1343 40.4687C38.503 40.0604 39.0975 39.9168 39.6242 40.1511C39.9176 40.2872 40.1283 40.514 40.2562 40.7862C40.2562 40.7862 40.2562 40.8013 40.2637 40.8089C40.2788 40.8315 40.2863 40.8618 40.3014 40.8845C40.8732 42.0789 41.114 43.6136 40.813 45.3146C40.2863 48.2403 37.743 53.5928 37.1862 56.7C36.5541 60.2229 38.8491 62.9294 41.1366 63.4586C42.6641 63.8064 44.5527 63.3603 45.862 62.5061C48.4504 60.7975 49.2706 57.3048 48.9696 53.7213C48.473 47.7565 45.5685 42.9635 44.0335 40.2494C43.7175 39.6975 43.6724 39.1608 43.7928 38.6921C43.8153 38.5938 43.8379 38.4955 43.883 38.4048C43.883 38.3897 43.8981 38.3821 43.9056 38.367C43.9056 38.367 43.9056 38.367 43.9056 38.3594C44.0862 37.9965 44.4173 37.7622 44.786 37.6866C44.8161 37.679 44.8537 37.679 44.8914 37.6715C44.9741 37.6639 45.0644 37.6563 45.1472 37.6639C45.2375 37.6715 45.3277 37.679 45.4256 37.7168H45.4331C47.0509 38.7223 48.7815 40.9752 49.85 43.2129C51.7687 47.2349 53.4844 55.9742 55.516 60.2305C57.826 65.0689 62.732 66.3239 65.7644 64.9404C67.781 64.0181 69.5417 61.803 70.2791 59.6106C71.7313 55.256 69.6696 50.2891 66.261 46.1916C60.9938 39.879 53.8455 37.2405 49.5038 34.5643C49.1728 34.3602 48.9019 34.1107 48.6686 33.8385C47.8786 32.886 48.2247 31.5932 49.5565 31.3589C49.5791 31.3589 49.6017 31.3589 49.6318 31.3589C49.7672 31.3362 49.9102 31.3362 50.0682 31.3362C56.607 31.0716 71.8065 32.8633 74.9067 31.9032C77.2242 31.185 78.842 29.8695 78.9699 27.2387H78.9774C78.9774 27.1631 78.9774 27.095 78.9774 27.0194L79 27.0043ZM45.8921 20.412C44.643 20.412 43.6347 19.399 43.6347 18.144C43.6347 16.889 44.643 15.876 45.8921 15.876C47.1412 15.876 48.1494 16.889 48.1494 18.144C48.1494 19.399 47.1412 20.412 45.8921 20.412ZM57.1789 20.412C55.9298 20.412 54.9215 19.399 54.9215 18.144C54.9215 16.889 55.9298 15.876 57.1789 15.876C58.4279 15.876 59.4362 16.889 59.4362 18.144C59.4362 19.399 58.4279 20.412 57.1789 20.412Z" fill="#8539FF"/>
</svg>
